<mxfile host="app.diagrams.net" modified="2020-03-23T09:48:27.024Z" agent="Mozilla/5.0 (Windows NT 10.0; Win64; x64; rv:74.0) Gecko/20100101 Firefox/74.0" etag="givZbARhujPCCvfLWnrS" version="12.8.8" type="github">
  <diagram id="6jAX5DyEgKvOPrPaPpcJ" name="Page-1">
    <mxGraphModel dx="2011" dy="1941" grid="1" gridSize="10" guides="1" tooltips="1" connect="1" arrows="1" fold="1" page="1" pageScale="1" pageWidth="827" pageHeight="1169" math="0" shadow="0">
      <root>
        <mxCell id="0" />
        <mxCell id="1" parent="0" />
        <mxCell id="Cp6cYt6WszPJDfv9rMYJ-1" value="Agent" style="swimlane;fontStyle=1;align=center;verticalAlign=top;childLayout=stackLayout;horizontal=1;startSize=26;horizontalStack=0;resizeParent=1;resizeParentMax=0;resizeLast=0;collapsible=1;marginBottom=0;" parent="1" vertex="1">
          <mxGeometry x="40" y="90" width="160" height="86" as="geometry" />
        </mxCell>
        <mxCell id="Cp6cYt6WszPJDfv9rMYJ-2" value="+ field: type" style="text;strokeColor=none;fillColor=none;align=left;verticalAlign=top;spacingLeft=4;spacingRight=4;overflow=hidden;rotatable=0;points=[[0,0.5],[1,0.5]];portConstraint=eastwest;" parent="Cp6cYt6WszPJDfv9rMYJ-1" vertex="1">
          <mxGeometry y="26" width="160" height="26" as="geometry" />
        </mxCell>
        <mxCell id="Cp6cYt6WszPJDfv9rMYJ-3" value="" style="line;strokeWidth=1;fillColor=none;align=left;verticalAlign=middle;spacingTop=-1;spacingLeft=3;spacingRight=3;rotatable=0;labelPosition=right;points=[];portConstraint=eastwest;" parent="Cp6cYt6WszPJDfv9rMYJ-1" vertex="1">
          <mxGeometry y="52" width="160" height="8" as="geometry" />
        </mxCell>
        <mxCell id="Cp6cYt6WszPJDfv9rMYJ-4" value="+ method(type): type" style="text;strokeColor=none;fillColor=none;align=left;verticalAlign=top;spacingLeft=4;spacingRight=4;overflow=hidden;rotatable=0;points=[[0,0.5],[1,0.5]];portConstraint=eastwest;" parent="Cp6cYt6WszPJDfv9rMYJ-1" vertex="1">
          <mxGeometry y="60" width="160" height="26" as="geometry" />
        </mxCell>
        <mxCell id="Cp6cYt6WszPJDfv9rMYJ-5" value="RobotAgent" style="swimlane;fontStyle=1;align=center;verticalAlign=top;childLayout=stackLayout;horizontal=1;startSize=26;horizontalStack=0;resizeParent=1;resizeParentMax=0;resizeLast=0;collapsible=1;marginBottom=0;" parent="1" vertex="1">
          <mxGeometry x="40" y="230" width="160" height="86" as="geometry" />
        </mxCell>
        <mxCell id="Cp6cYt6WszPJDfv9rMYJ-6" value="+ field: type" style="text;strokeColor=none;fillColor=none;align=left;verticalAlign=top;spacingLeft=4;spacingRight=4;overflow=hidden;rotatable=0;points=[[0,0.5],[1,0.5]];portConstraint=eastwest;" parent="Cp6cYt6WszPJDfv9rMYJ-5" vertex="1">
          <mxGeometry y="26" width="160" height="26" as="geometry" />
        </mxCell>
        <mxCell id="Cp6cYt6WszPJDfv9rMYJ-7" value="" style="line;strokeWidth=1;fillColor=none;align=left;verticalAlign=middle;spacingTop=-1;spacingLeft=3;spacingRight=3;rotatable=0;labelPosition=right;points=[];portConstraint=eastwest;" parent="Cp6cYt6WszPJDfv9rMYJ-5" vertex="1">
          <mxGeometry y="52" width="160" height="8" as="geometry" />
        </mxCell>
        <mxCell id="Cp6cYt6WszPJDfv9rMYJ-8" value="+ method(type): type" style="text;strokeColor=none;fillColor=none;align=left;verticalAlign=top;spacingLeft=4;spacingRight=4;overflow=hidden;rotatable=0;points=[[0,0.5],[1,0.5]];portConstraint=eastwest;" parent="Cp6cYt6WszPJDfv9rMYJ-5" vertex="1">
          <mxGeometry y="60" width="160" height="26" as="geometry" />
        </mxCell>
        <mxCell id="Cp6cYt6WszPJDfv9rMYJ-9" value="StandardAgent" style="swimlane;fontStyle=1;align=center;verticalAlign=top;childLayout=stackLayout;horizontal=1;startSize=26;horizontalStack=0;resizeParent=1;resizeParentMax=0;resizeLast=0;collapsible=1;marginBottom=0;" parent="1" vertex="1">
          <mxGeometry x="220" y="230" width="160" height="86" as="geometry" />
        </mxCell>
        <mxCell id="Cp6cYt6WszPJDfv9rMYJ-10" value="+ field: type" style="text;strokeColor=none;fillColor=none;align=left;verticalAlign=top;spacingLeft=4;spacingRight=4;overflow=hidden;rotatable=0;points=[[0,0.5],[1,0.5]];portConstraint=eastwest;" parent="Cp6cYt6WszPJDfv9rMYJ-9" vertex="1">
          <mxGeometry y="26" width="160" height="26" as="geometry" />
        </mxCell>
        <mxCell id="Cp6cYt6WszPJDfv9rMYJ-11" value="" style="line;strokeWidth=1;fillColor=none;align=left;verticalAlign=middle;spacingTop=-1;spacingLeft=3;spacingRight=3;rotatable=0;labelPosition=right;points=[];portConstraint=eastwest;" parent="Cp6cYt6WszPJDfv9rMYJ-9" vertex="1">
          <mxGeometry y="52" width="160" height="8" as="geometry" />
        </mxCell>
        <mxCell id="Cp6cYt6WszPJDfv9rMYJ-12" value="+ method(type): type" style="text;strokeColor=none;fillColor=none;align=left;verticalAlign=top;spacingLeft=4;spacingRight=4;overflow=hidden;rotatable=0;points=[[0,0.5],[1,0.5]];portConstraint=eastwest;" parent="Cp6cYt6WszPJDfv9rMYJ-9" vertex="1">
          <mxGeometry y="60" width="160" height="26" as="geometry" />
        </mxCell>
        <mxCell id="Cp6cYt6WszPJDfv9rMYJ-13" value="Extends" style="endArrow=block;endSize=16;endFill=0;html=1;exitX=0.5;exitY=0;exitDx=0;exitDy=0;entryX=0.494;entryY=1.231;entryDx=0;entryDy=0;entryPerimeter=0;" parent="1" source="Cp6cYt6WszPJDfv9rMYJ-5" target="Cp6cYt6WszPJDfv9rMYJ-4" edge="1">
          <mxGeometry width="160" relative="1" as="geometry">
            <mxPoint x="330" y="390" as="sourcePoint" />
            <mxPoint x="490" y="390" as="targetPoint" />
          </mxGeometry>
        </mxCell>
        <mxCell id="Cp6cYt6WszPJDfv9rMYJ-14" value="Extends" style="endArrow=block;endSize=16;endFill=0;html=1;exitX=0.5;exitY=0;exitDx=0;exitDy=0;entryX=1;entryY=0.5;entryDx=0;entryDy=0;" parent="1" source="Cp6cYt6WszPJDfv9rMYJ-9" target="Cp6cYt6WszPJDfv9rMYJ-4" edge="1">
          <mxGeometry width="160" relative="1" as="geometry">
            <mxPoint x="130" y="240" as="sourcePoint" />
            <mxPoint x="129.03999999999996" y="192.00599999999997" as="targetPoint" />
          </mxGeometry>
        </mxCell>
        <mxCell id="Cp6cYt6WszPJDfv9rMYJ-19" value="Body" style="swimlane;fontStyle=1;align=center;verticalAlign=top;childLayout=stackLayout;horizontal=1;startSize=26;horizontalStack=0;resizeParent=1;resizeParentMax=0;resizeLast=0;collapsible=1;marginBottom=0;" parent="1" vertex="1">
          <mxGeometry x="40" y="595" width="160" height="86" as="geometry" />
        </mxCell>
        <mxCell id="Cp6cYt6WszPJDfv9rMYJ-20" value="+ field: type" style="text;strokeColor=none;fillColor=none;align=left;verticalAlign=top;spacingLeft=4;spacingRight=4;overflow=hidden;rotatable=0;points=[[0,0.5],[1,0.5]];portConstraint=eastwest;" parent="Cp6cYt6WszPJDfv9rMYJ-19" vertex="1">
          <mxGeometry y="26" width="160" height="26" as="geometry" />
        </mxCell>
        <mxCell id="Cp6cYt6WszPJDfv9rMYJ-21" value="" style="line;strokeWidth=1;fillColor=none;align=left;verticalAlign=middle;spacingTop=-1;spacingLeft=3;spacingRight=3;rotatable=0;labelPosition=right;points=[];portConstraint=eastwest;" parent="Cp6cYt6WszPJDfv9rMYJ-19" vertex="1">
          <mxGeometry y="52" width="160" height="8" as="geometry" />
        </mxCell>
        <mxCell id="Cp6cYt6WszPJDfv9rMYJ-22" value="+ method(type): type" style="text;strokeColor=none;fillColor=none;align=left;verticalAlign=top;spacingLeft=4;spacingRight=4;overflow=hidden;rotatable=0;points=[[0,0.5],[1,0.5]];portConstraint=eastwest;" parent="Cp6cYt6WszPJDfv9rMYJ-19" vertex="1">
          <mxGeometry y="60" width="160" height="26" as="geometry" />
        </mxCell>
        <mxCell id="Cp6cYt6WszPJDfv9rMYJ-15" value="StandardAgentBody" style="swimlane;fontStyle=1;align=center;verticalAlign=top;childLayout=stackLayout;horizontal=1;startSize=26;horizontalStack=0;resizeParent=1;resizeParentMax=0;resizeLast=0;collapsible=1;marginBottom=0;" parent="1" vertex="1">
          <mxGeometry x="220" y="440" width="160" height="86" as="geometry" />
        </mxCell>
        <mxCell id="Cp6cYt6WszPJDfv9rMYJ-16" value="+ field: type" style="text;strokeColor=none;fillColor=none;align=left;verticalAlign=top;spacingLeft=4;spacingRight=4;overflow=hidden;rotatable=0;points=[[0,0.5],[1,0.5]];portConstraint=eastwest;" parent="Cp6cYt6WszPJDfv9rMYJ-15" vertex="1">
          <mxGeometry y="26" width="160" height="26" as="geometry" />
        </mxCell>
        <mxCell id="Cp6cYt6WszPJDfv9rMYJ-17" value="" style="line;strokeWidth=1;fillColor=none;align=left;verticalAlign=middle;spacingTop=-1;spacingLeft=3;spacingRight=3;rotatable=0;labelPosition=right;points=[];portConstraint=eastwest;" parent="Cp6cYt6WszPJDfv9rMYJ-15" vertex="1">
          <mxGeometry y="52" width="160" height="8" as="geometry" />
        </mxCell>
        <mxCell id="Cp6cYt6WszPJDfv9rMYJ-18" value="+ method(type): type" style="text;strokeColor=none;fillColor=none;align=left;verticalAlign=top;spacingLeft=4;spacingRight=4;overflow=hidden;rotatable=0;points=[[0,0.5],[1,0.5]];portConstraint=eastwest;" parent="Cp6cYt6WszPJDfv9rMYJ-15" vertex="1">
          <mxGeometry y="60" width="160" height="26" as="geometry" />
        </mxCell>
        <mxCell id="Cp6cYt6WszPJDfv9rMYJ-23" value="RobotBody" style="swimlane;fontStyle=1;align=center;verticalAlign=top;childLayout=stackLayout;horizontal=1;startSize=26;horizontalStack=0;resizeParent=1;resizeParentMax=0;resizeLast=0;collapsible=1;marginBottom=0;" parent="1" vertex="1">
          <mxGeometry x="40" y="440" width="160" height="86" as="geometry" />
        </mxCell>
        <mxCell id="Cp6cYt6WszPJDfv9rMYJ-24" value="+ field: type" style="text;strokeColor=none;fillColor=none;align=left;verticalAlign=top;spacingLeft=4;spacingRight=4;overflow=hidden;rotatable=0;points=[[0,0.5],[1,0.5]];portConstraint=eastwest;" parent="Cp6cYt6WszPJDfv9rMYJ-23" vertex="1">
          <mxGeometry y="26" width="160" height="26" as="geometry" />
        </mxCell>
        <mxCell id="Cp6cYt6WszPJDfv9rMYJ-25" value="" style="line;strokeWidth=1;fillColor=none;align=left;verticalAlign=middle;spacingTop=-1;spacingLeft=3;spacingRight=3;rotatable=0;labelPosition=right;points=[];portConstraint=eastwest;" parent="Cp6cYt6WszPJDfv9rMYJ-23" vertex="1">
          <mxGeometry y="52" width="160" height="8" as="geometry" />
        </mxCell>
        <mxCell id="Cp6cYt6WszPJDfv9rMYJ-26" value="+ method(type): type" style="text;strokeColor=none;fillColor=none;align=left;verticalAlign=top;spacingLeft=4;spacingRight=4;overflow=hidden;rotatable=0;points=[[0,0.5],[1,0.5]];portConstraint=eastwest;" parent="Cp6cYt6WszPJDfv9rMYJ-23" vertex="1">
          <mxGeometry y="60" width="160" height="26" as="geometry" />
        </mxCell>
        <mxCell id="Cp6cYt6WszPJDfv9rMYJ-27" value="" style="endArrow=diamondThin;endFill=1;endSize=24;html=1;exitX=0.5;exitY=0;exitDx=0;exitDy=0;" parent="1" source="Cp6cYt6WszPJDfv9rMYJ-23" edge="1">
          <mxGeometry width="160" relative="1" as="geometry">
            <mxPoint x="330" y="390" as="sourcePoint" />
            <mxPoint x="121" y="316" as="targetPoint" />
          </mxGeometry>
        </mxCell>
        <mxCell id="Cp6cYt6WszPJDfv9rMYJ-28" value="" style="endArrow=diamondThin;endFill=1;endSize=24;html=1;entryX=0.481;entryY=0.962;entryDx=0;entryDy=0;entryPerimeter=0;exitX=0.5;exitY=0;exitDx=0;exitDy=0;" parent="1" source="Cp6cYt6WszPJDfv9rMYJ-15" target="Cp6cYt6WszPJDfv9rMYJ-12" edge="1">
          <mxGeometry width="160" relative="1" as="geometry">
            <mxPoint x="480" y="420" as="sourcePoint" />
            <mxPoint x="300.5" y="326" as="targetPoint" />
          </mxGeometry>
        </mxCell>
        <mxCell id="Cp6cYt6WszPJDfv9rMYJ-29" value="Extends" style="endArrow=block;endSize=16;endFill=0;html=1;exitX=0.213;exitY=0.962;exitDx=0;exitDy=0;entryX=0.75;entryY=0;entryDx=0;entryDy=0;exitPerimeter=0;" parent="1" source="Cp6cYt6WszPJDfv9rMYJ-18" target="Cp6cYt6WszPJDfv9rMYJ-19" edge="1">
          <mxGeometry width="160" relative="1" as="geometry">
            <mxPoint x="310" y="240" as="sourcePoint" />
            <mxPoint x="210" y="173" as="targetPoint" />
          </mxGeometry>
        </mxCell>
        <mxCell id="Cp6cYt6WszPJDfv9rMYJ-30" value="Extends" style="endArrow=block;endSize=16;endFill=0;html=1;exitX=0.506;exitY=1.077;exitDx=0;exitDy=0;entryX=0.5;entryY=0;entryDx=0;entryDy=0;exitPerimeter=0;" parent="1" source="Cp6cYt6WszPJDfv9rMYJ-26" target="Cp6cYt6WszPJDfv9rMYJ-19" edge="1">
          <mxGeometry width="160" relative="1" as="geometry">
            <mxPoint x="264.0799999999999" y="535.012" as="sourcePoint" />
            <mxPoint x="170" y="605" as="targetPoint" />
          </mxGeometry>
        </mxCell>
        <mxCell id="Cp6cYt6WszPJDfv9rMYJ-31" value="Environement" style="swimlane;fontStyle=1;align=center;verticalAlign=top;childLayout=stackLayout;horizontal=1;startSize=26;horizontalStack=0;resizeParent=1;resizeParentMax=0;resizeLast=0;collapsible=1;marginBottom=0;" parent="1" vertex="1">
          <mxGeometry x="510" y="90" width="160" height="86" as="geometry" />
        </mxCell>
        <mxCell id="Cp6cYt6WszPJDfv9rMYJ-32" value="+ field: type" style="text;strokeColor=none;fillColor=none;align=left;verticalAlign=top;spacingLeft=4;spacingRight=4;overflow=hidden;rotatable=0;points=[[0,0.5],[1,0.5]];portConstraint=eastwest;" parent="Cp6cYt6WszPJDfv9rMYJ-31" vertex="1">
          <mxGeometry y="26" width="160" height="26" as="geometry" />
        </mxCell>
        <mxCell id="Cp6cYt6WszPJDfv9rMYJ-33" value="" style="line;strokeWidth=1;fillColor=none;align=left;verticalAlign=middle;spacingTop=-1;spacingLeft=3;spacingRight=3;rotatable=0;labelPosition=right;points=[];portConstraint=eastwest;" parent="Cp6cYt6WszPJDfv9rMYJ-31" vertex="1">
          <mxGeometry y="52" width="160" height="8" as="geometry" />
        </mxCell>
        <mxCell id="Cp6cYt6WszPJDfv9rMYJ-34" value="+ method(type): type" style="text;strokeColor=none;fillColor=none;align=left;verticalAlign=top;spacingLeft=4;spacingRight=4;overflow=hidden;rotatable=0;points=[[0,0.5],[1,0.5]];portConstraint=eastwest;" parent="Cp6cYt6WszPJDfv9rMYJ-31" vertex="1">
          <mxGeometry y="60" width="160" height="26" as="geometry" />
        </mxCell>
        <mxCell id="Cp6cYt6WszPJDfv9rMYJ-35" value="" style="endArrow=diamondThin;endFill=1;endSize=24;html=1;entryX=0;entryY=0.5;entryDx=0;entryDy=0;exitX=1;exitY=0.5;exitDx=0;exitDy=0;" parent="1" source="Cp6cYt6WszPJDfv9rMYJ-2" target="Cp6cYt6WszPJDfv9rMYJ-32" edge="1">
          <mxGeometry width="160" relative="1" as="geometry">
            <mxPoint x="310" y="450" as="sourcePoint" />
            <mxPoint x="306.96000000000004" y="325.01199999999994" as="targetPoint" />
          </mxGeometry>
        </mxCell>
        <mxCell id="Cp6cYt6WszPJDfv9rMYJ-40" value="Extends" style="endArrow=block;endSize=16;endFill=0;html=1;exitX=0.5;exitY=0;exitDx=0;exitDy=0;" parent="1" source="Cp6cYt6WszPJDfv9rMYJ-36" target="Cp6cYt6WszPJDfv9rMYJ-34" edge="1">
          <mxGeometry width="160" relative="1" as="geometry">
            <mxPoint x="540.96" y="377.99" as="sourcePoint" />
            <mxPoint x="540" y="329.996" as="targetPoint" />
          </mxGeometry>
        </mxCell>
        <mxCell id="Cp6cYt6WszPJDfv9rMYJ-36" value="EnvironementDrive" style="swimlane;fontStyle=1;align=center;verticalAlign=top;childLayout=stackLayout;horizontal=1;startSize=26;horizontalStack=0;resizeParent=1;resizeParentMax=0;resizeLast=0;collapsible=1;marginBottom=0;" parent="1" vertex="1">
          <mxGeometry x="510" y="230" width="160" height="86" as="geometry" />
        </mxCell>
        <mxCell id="Cp6cYt6WszPJDfv9rMYJ-37" value="+ field: type" style="text;strokeColor=none;fillColor=none;align=left;verticalAlign=top;spacingLeft=4;spacingRight=4;overflow=hidden;rotatable=0;points=[[0,0.5],[1,0.5]];portConstraint=eastwest;" parent="Cp6cYt6WszPJDfv9rMYJ-36" vertex="1">
          <mxGeometry y="26" width="160" height="26" as="geometry" />
        </mxCell>
        <mxCell id="Cp6cYt6WszPJDfv9rMYJ-38" value="" style="line;strokeWidth=1;fillColor=none;align=left;verticalAlign=middle;spacingTop=-1;spacingLeft=3;spacingRight=3;rotatable=0;labelPosition=right;points=[];portConstraint=eastwest;" parent="Cp6cYt6WszPJDfv9rMYJ-36" vertex="1">
          <mxGeometry y="52" width="160" height="8" as="geometry" />
        </mxCell>
        <mxCell id="Cp6cYt6WszPJDfv9rMYJ-39" value="+ method(type): type" style="text;strokeColor=none;fillColor=none;align=left;verticalAlign=top;spacingLeft=4;spacingRight=4;overflow=hidden;rotatable=0;points=[[0,0.5],[1,0.5]];portConstraint=eastwest;" parent="Cp6cYt6WszPJDfv9rMYJ-36" vertex="1">
          <mxGeometry y="60" width="160" height="26" as="geometry" />
        </mxCell>
        <mxCell id="Cp6cYt6WszPJDfv9rMYJ-41" value="Fustrum" style="swimlane;fontStyle=1;align=center;verticalAlign=top;childLayout=stackLayout;horizontal=1;startSize=26;horizontalStack=0;resizeParent=1;resizeParentMax=0;resizeLast=0;collapsible=1;marginBottom=0;" parent="1" vertex="1">
          <mxGeometry x="40" y="-80" width="160" height="86" as="geometry" />
        </mxCell>
        <mxCell id="Cp6cYt6WszPJDfv9rMYJ-42" value="+ field: type" style="text;strokeColor=none;fillColor=none;align=left;verticalAlign=top;spacingLeft=4;spacingRight=4;overflow=hidden;rotatable=0;points=[[0,0.5],[1,0.5]];portConstraint=eastwest;" parent="Cp6cYt6WszPJDfv9rMYJ-41" vertex="1">
          <mxGeometry y="26" width="160" height="26" as="geometry" />
        </mxCell>
        <mxCell id="Cp6cYt6WszPJDfv9rMYJ-43" value="" style="line;strokeWidth=1;fillColor=none;align=left;verticalAlign=middle;spacingTop=-1;spacingLeft=3;spacingRight=3;rotatable=0;labelPosition=right;points=[];portConstraint=eastwest;" parent="Cp6cYt6WszPJDfv9rMYJ-41" vertex="1">
          <mxGeometry y="52" width="160" height="8" as="geometry" />
        </mxCell>
        <mxCell id="Cp6cYt6WszPJDfv9rMYJ-44" value="+ method(type): type" style="text;strokeColor=none;fillColor=none;align=left;verticalAlign=top;spacingLeft=4;spacingRight=4;overflow=hidden;rotatable=0;points=[[0,0.5],[1,0.5]];portConstraint=eastwest;" parent="Cp6cYt6WszPJDfv9rMYJ-41" vertex="1">
          <mxGeometry y="60" width="160" height="26" as="geometry" />
        </mxCell>
        <mxCell id="Cp6cYt6WszPJDfv9rMYJ-45" value="" style="endArrow=diamondThin;endFill=1;endSize=24;html=1;entryX=0.5;entryY=0;entryDx=0;entryDy=0;" parent="1" source="Cp6cYt6WszPJDfv9rMYJ-44" target="Cp6cYt6WszPJDfv9rMYJ-1" edge="1">
          <mxGeometry width="160" relative="1" as="geometry">
            <mxPoint x="130" y="450" as="sourcePoint" />
            <mxPoint x="131" y="326" as="targetPoint" />
          </mxGeometry>
        </mxCell>
        <mxCell id="Cp6cYt6WszPJDfv9rMYJ-50" value="EnvironementalObjet" style="swimlane;fontStyle=1;align=center;verticalAlign=top;childLayout=stackLayout;horizontal=1;startSize=26;horizontalStack=0;resizeParent=1;resizeParentMax=0;resizeLast=0;collapsible=1;marginBottom=0;" parent="1" vertex="1">
          <mxGeometry x="370" y="-220" width="160" height="86" as="geometry" />
        </mxCell>
        <mxCell id="Cp6cYt6WszPJDfv9rMYJ-51" value="+ field: type" style="text;strokeColor=none;fillColor=none;align=left;verticalAlign=top;spacingLeft=4;spacingRight=4;overflow=hidden;rotatable=0;points=[[0,0.5],[1,0.5]];portConstraint=eastwest;" parent="Cp6cYt6WszPJDfv9rMYJ-50" vertex="1">
          <mxGeometry y="26" width="160" height="26" as="geometry" />
        </mxCell>
        <mxCell id="Cp6cYt6WszPJDfv9rMYJ-52" value="" style="line;strokeWidth=1;fillColor=none;align=left;verticalAlign=middle;spacingTop=-1;spacingLeft=3;spacingRight=3;rotatable=0;labelPosition=right;points=[];portConstraint=eastwest;" parent="Cp6cYt6WszPJDfv9rMYJ-50" vertex="1">
          <mxGeometry y="52" width="160" height="8" as="geometry" />
        </mxCell>
        <mxCell id="Cp6cYt6WszPJDfv9rMYJ-53" value="+ method(type): type" style="text;strokeColor=none;fillColor=none;align=left;verticalAlign=top;spacingLeft=4;spacingRight=4;overflow=hidden;rotatable=0;points=[[0,0.5],[1,0.5]];portConstraint=eastwest;" parent="Cp6cYt6WszPJDfv9rMYJ-50" vertex="1">
          <mxGeometry y="60" width="160" height="26" as="geometry" />
        </mxCell>
        <mxCell id="Cp6cYt6WszPJDfv9rMYJ-58" value="Destination" style="swimlane;fontStyle=1;align=center;verticalAlign=top;childLayout=stackLayout;horizontal=1;startSize=26;horizontalStack=0;resizeParent=1;resizeParentMax=0;resizeLast=0;collapsible=1;marginBottom=0;" parent="1" vertex="1">
          <mxGeometry x="370" y="-360" width="160" height="86" as="geometry" />
        </mxCell>
        <mxCell id="Cp6cYt6WszPJDfv9rMYJ-59" value="+ field: type" style="text;strokeColor=none;fillColor=none;align=left;verticalAlign=top;spacingLeft=4;spacingRight=4;overflow=hidden;rotatable=0;points=[[0,0.5],[1,0.5]];portConstraint=eastwest;" parent="Cp6cYt6WszPJDfv9rMYJ-58" vertex="1">
          <mxGeometry y="26" width="160" height="26" as="geometry" />
        </mxCell>
        <mxCell id="Cp6cYt6WszPJDfv9rMYJ-60" value="" style="line;strokeWidth=1;fillColor=none;align=left;verticalAlign=middle;spacingTop=-1;spacingLeft=3;spacingRight=3;rotatable=0;labelPosition=right;points=[];portConstraint=eastwest;" parent="Cp6cYt6WszPJDfv9rMYJ-58" vertex="1">
          <mxGeometry y="52" width="160" height="8" as="geometry" />
        </mxCell>
        <mxCell id="Cp6cYt6WszPJDfv9rMYJ-61" value="+ method(type): type" style="text;strokeColor=none;fillColor=none;align=left;verticalAlign=top;spacingLeft=4;spacingRight=4;overflow=hidden;rotatable=0;points=[[0,0.5],[1,0.5]];portConstraint=eastwest;" parent="Cp6cYt6WszPJDfv9rMYJ-58" vertex="1">
          <mxGeometry y="60" width="160" height="26" as="geometry" />
        </mxCell>
        <mxCell id="Cp6cYt6WszPJDfv9rMYJ-62" value="Target" style="swimlane;fontStyle=1;align=center;verticalAlign=top;childLayout=stackLayout;horizontal=1;startSize=26;horizontalStack=0;resizeParent=1;resizeParentMax=0;resizeLast=0;collapsible=1;marginBottom=0;" parent="1" vertex="1">
          <mxGeometry x="560" y="-360" width="160" height="86" as="geometry" />
        </mxCell>
        <mxCell id="Cp6cYt6WszPJDfv9rMYJ-63" value="+ field: type" style="text;strokeColor=none;fillColor=none;align=left;verticalAlign=top;spacingLeft=4;spacingRight=4;overflow=hidden;rotatable=0;points=[[0,0.5],[1,0.5]];portConstraint=eastwest;" parent="Cp6cYt6WszPJDfv9rMYJ-62" vertex="1">
          <mxGeometry y="26" width="160" height="26" as="geometry" />
        </mxCell>
        <mxCell id="Cp6cYt6WszPJDfv9rMYJ-64" value="" style="line;strokeWidth=1;fillColor=none;align=left;verticalAlign=middle;spacingTop=-1;spacingLeft=3;spacingRight=3;rotatable=0;labelPosition=right;points=[];portConstraint=eastwest;" parent="Cp6cYt6WszPJDfv9rMYJ-62" vertex="1">
          <mxGeometry y="52" width="160" height="8" as="geometry" />
        </mxCell>
        <mxCell id="Cp6cYt6WszPJDfv9rMYJ-65" value="+ method(type): type" style="text;strokeColor=none;fillColor=none;align=left;verticalAlign=top;spacingLeft=4;spacingRight=4;overflow=hidden;rotatable=0;points=[[0,0.5],[1,0.5]];portConstraint=eastwest;" parent="Cp6cYt6WszPJDfv9rMYJ-62" vertex="1">
          <mxGeometry y="60" width="160" height="26" as="geometry" />
        </mxCell>
        <mxCell id="Cp6cYt6WszPJDfv9rMYJ-66" value="Marchandise" style="swimlane;fontStyle=1;align=center;verticalAlign=top;childLayout=stackLayout;horizontal=1;startSize=26;horizontalStack=0;resizeParent=1;resizeParentMax=0;resizeLast=0;collapsible=1;marginBottom=0;" parent="1" vertex="1">
          <mxGeometry x="190" y="-360" width="160" height="86" as="geometry" />
        </mxCell>
        <mxCell id="Cp6cYt6WszPJDfv9rMYJ-67" value="+ field: type" style="text;strokeColor=none;fillColor=none;align=left;verticalAlign=top;spacingLeft=4;spacingRight=4;overflow=hidden;rotatable=0;points=[[0,0.5],[1,0.5]];portConstraint=eastwest;" parent="Cp6cYt6WszPJDfv9rMYJ-66" vertex="1">
          <mxGeometry y="26" width="160" height="26" as="geometry" />
        </mxCell>
        <mxCell id="Cp6cYt6WszPJDfv9rMYJ-68" value="" style="line;strokeWidth=1;fillColor=none;align=left;verticalAlign=middle;spacingTop=-1;spacingLeft=3;spacingRight=3;rotatable=0;labelPosition=right;points=[];portConstraint=eastwest;" parent="Cp6cYt6WszPJDfv9rMYJ-66" vertex="1">
          <mxGeometry y="52" width="160" height="8" as="geometry" />
        </mxCell>
        <mxCell id="Cp6cYt6WszPJDfv9rMYJ-69" value="+ method(type): type" style="text;strokeColor=none;fillColor=none;align=left;verticalAlign=top;spacingLeft=4;spacingRight=4;overflow=hidden;rotatable=0;points=[[0,0.5],[1,0.5]];portConstraint=eastwest;" parent="Cp6cYt6WszPJDfv9rMYJ-66" vertex="1">
          <mxGeometry y="60" width="160" height="26" as="geometry" />
        </mxCell>
        <mxCell id="Cp6cYt6WszPJDfv9rMYJ-70" value="Extends" style="endArrow=block;endSize=16;endFill=0;html=1;exitX=0.525;exitY=1.154;exitDx=0;exitDy=0;exitPerimeter=0;entryX=0;entryY=0.5;entryDx=0;entryDy=0;" parent="1" source="Cp6cYt6WszPJDfv9rMYJ-69" target="Cp6cYt6WszPJDfv9rMYJ-51" edge="1">
          <mxGeometry width="160" relative="1" as="geometry">
            <mxPoint x="330" y="-300" as="sourcePoint" />
            <mxPoint x="490" y="-300" as="targetPoint" />
          </mxGeometry>
        </mxCell>
        <mxCell id="Cp6cYt6WszPJDfv9rMYJ-71" value="Extends" style="endArrow=block;endSize=16;endFill=0;html=1;exitX=0.494;exitY=0.962;exitDx=0;exitDy=0;exitPerimeter=0;entryX=0.5;entryY=0;entryDx=0;entryDy=0;" parent="1" source="Cp6cYt6WszPJDfv9rMYJ-61" target="Cp6cYt6WszPJDfv9rMYJ-50" edge="1">
          <mxGeometry width="160" relative="1" as="geometry">
            <mxPoint x="284" y="-259.9960000000001" as="sourcePoint" />
            <mxPoint x="380" y="-171" as="targetPoint" />
          </mxGeometry>
        </mxCell>
        <mxCell id="Cp6cYt6WszPJDfv9rMYJ-72" value="Extends" style="endArrow=block;endSize=16;endFill=0;html=1;exitX=0.506;exitY=1.154;exitDx=0;exitDy=0;exitPerimeter=0;entryX=1;entryY=0.5;entryDx=0;entryDy=0;" parent="1" source="Cp6cYt6WszPJDfv9rMYJ-65" target="Cp6cYt6WszPJDfv9rMYJ-51" edge="1">
          <mxGeometry width="160" relative="1" as="geometry">
            <mxPoint x="459.03999999999996" y="-264.98800000000006" as="sourcePoint" />
            <mxPoint x="460" y="-210" as="targetPoint" />
          </mxGeometry>
        </mxCell>
        <mxCell id="Cp6cYt6WszPJDfv9rMYJ-73" value="Extends" style="endArrow=block;endSize=16;endFill=0;html=1;exitX=0.481;exitY=1.038;exitDx=0;exitDy=0;exitPerimeter=0;entryX=0.5;entryY=0;entryDx=0;entryDy=0;" parent="1" source="Cp6cYt6WszPJDfv9rMYJ-53" target="Cp6cYt6WszPJDfv9rMYJ-54" edge="1">
          <mxGeometry width="160" relative="1" as="geometry">
            <mxPoint x="469.03999999999996" y="-254.98800000000006" as="sourcePoint" />
            <mxPoint x="470" y="-200" as="targetPoint" />
          </mxGeometry>
        </mxCell>
        <mxCell id="Cp6cYt6WszPJDfv9rMYJ-54" value="Objet" style="swimlane;fontStyle=1;align=center;verticalAlign=top;childLayout=stackLayout;horizontal=1;startSize=26;horizontalStack=0;resizeParent=1;resizeParentMax=0;resizeLast=0;collapsible=1;marginBottom=0;" parent="1" vertex="1">
          <mxGeometry x="510" y="-70" width="160" height="86" as="geometry" />
        </mxCell>
        <mxCell id="Cp6cYt6WszPJDfv9rMYJ-55" value="+ field: type" style="text;strokeColor=none;fillColor=none;align=left;verticalAlign=top;spacingLeft=4;spacingRight=4;overflow=hidden;rotatable=0;points=[[0,0.5],[1,0.5]];portConstraint=eastwest;" parent="Cp6cYt6WszPJDfv9rMYJ-54" vertex="1">
          <mxGeometry y="26" width="160" height="26" as="geometry" />
        </mxCell>
        <mxCell id="Cp6cYt6WszPJDfv9rMYJ-56" value="" style="line;strokeWidth=1;fillColor=none;align=left;verticalAlign=middle;spacingTop=-1;spacingLeft=3;spacingRight=3;rotatable=0;labelPosition=right;points=[];portConstraint=eastwest;" parent="Cp6cYt6WszPJDfv9rMYJ-54" vertex="1">
          <mxGeometry y="52" width="160" height="8" as="geometry" />
        </mxCell>
        <mxCell id="Cp6cYt6WszPJDfv9rMYJ-57" value="+ method(type): type" style="text;strokeColor=none;fillColor=none;align=left;verticalAlign=top;spacingLeft=4;spacingRight=4;overflow=hidden;rotatable=0;points=[[0,0.5],[1,0.5]];portConstraint=eastwest;" parent="Cp6cYt6WszPJDfv9rMYJ-54" vertex="1">
          <mxGeometry y="60" width="160" height="26" as="geometry" />
        </mxCell>
        <mxCell id="Cp6cYt6WszPJDfv9rMYJ-74" value="" style="endArrow=diamondThin;endFill=1;endSize=24;html=1;entryX=0.5;entryY=0;entryDx=0;entryDy=0;" parent="1" target="Cp6cYt6WszPJDfv9rMYJ-31" edge="1">
          <mxGeometry width="160" relative="1" as="geometry">
            <mxPoint x="590" y="16" as="sourcePoint" />
            <mxPoint x="490" y="140" as="targetPoint" />
          </mxGeometry>
        </mxCell>
        <mxCell id="Cp6cYt6WszPJDfv9rMYJ-75" value="Observer" style="swimlane;fontStyle=1;align=center;verticalAlign=top;childLayout=stackLayout;horizontal=1;startSize=26;horizontalStack=0;resizeParent=1;resizeParentMax=0;resizeLast=0;collapsible=1;marginBottom=0;" parent="1" vertex="1">
          <mxGeometry x="-240" y="90" width="160" height="86" as="geometry" />
        </mxCell>
        <mxCell id="Cp6cYt6WszPJDfv9rMYJ-76" value="+ field: type" style="text;strokeColor=none;fillColor=none;align=left;verticalAlign=top;spacingLeft=4;spacingRight=4;overflow=hidden;rotatable=0;points=[[0,0.5],[1,0.5]];portConstraint=eastwest;" parent="Cp6cYt6WszPJDfv9rMYJ-75" vertex="1">
          <mxGeometry y="26" width="160" height="26" as="geometry" />
        </mxCell>
        <mxCell id="Cp6cYt6WszPJDfv9rMYJ-77" value="" style="line;strokeWidth=1;fillColor=none;align=left;verticalAlign=middle;spacingTop=-1;spacingLeft=3;spacingRight=3;rotatable=0;labelPosition=right;points=[];portConstraint=eastwest;" parent="Cp6cYt6WszPJDfv9rMYJ-75" vertex="1">
          <mxGeometry y="52" width="160" height="8" as="geometry" />
        </mxCell>
        <mxCell id="Cp6cYt6WszPJDfv9rMYJ-78" value="+ method(type): type" style="text;strokeColor=none;fillColor=none;align=left;verticalAlign=top;spacingLeft=4;spacingRight=4;overflow=hidden;rotatable=0;points=[[0,0.5],[1,0.5]];portConstraint=eastwest;" parent="Cp6cYt6WszPJDfv9rMYJ-75" vertex="1">
          <mxGeometry y="60" width="160" height="26" as="geometry" />
        </mxCell>
        <mxCell id="Cp6cYt6WszPJDfv9rMYJ-79" value="" style="endArrow=diamondThin;endFill=1;endSize=24;html=1;entryX=0;entryY=0.5;entryDx=0;entryDy=0;exitX=1;exitY=0.5;exitDx=0;exitDy=0;" parent="1" source="Cp6cYt6WszPJDfv9rMYJ-76" target="Cp6cYt6WszPJDfv9rMYJ-2" edge="1">
          <mxGeometry width="160" relative="1" as="geometry">
            <mxPoint x="-320" y="320" as="sourcePoint" />
            <mxPoint x="-160" y="320" as="targetPoint" />
          </mxGeometry>
        </mxCell>
        <mxCell id="Cp6cYt6WszPJDfv9rMYJ-80" value="ObserverManager" style="swimlane;fontStyle=1;align=center;verticalAlign=top;childLayout=stackLayout;horizontal=1;startSize=26;horizontalStack=0;resizeParent=1;resizeParentMax=0;resizeLast=0;collapsible=1;marginBottom=0;" parent="1" vertex="1">
          <mxGeometry x="-240" y="250" width="160" height="86" as="geometry" />
        </mxCell>
        <mxCell id="Cp6cYt6WszPJDfv9rMYJ-81" value="+ field: type" style="text;strokeColor=none;fillColor=none;align=left;verticalAlign=top;spacingLeft=4;spacingRight=4;overflow=hidden;rotatable=0;points=[[0,0.5],[1,0.5]];portConstraint=eastwest;" parent="Cp6cYt6WszPJDfv9rMYJ-80" vertex="1">
          <mxGeometry y="26" width="160" height="26" as="geometry" />
        </mxCell>
        <mxCell id="Cp6cYt6WszPJDfv9rMYJ-82" value="" style="line;strokeWidth=1;fillColor=none;align=left;verticalAlign=middle;spacingTop=-1;spacingLeft=3;spacingRight=3;rotatable=0;labelPosition=right;points=[];portConstraint=eastwest;" parent="Cp6cYt6WszPJDfv9rMYJ-80" vertex="1">
          <mxGeometry y="52" width="160" height="8" as="geometry" />
        </mxCell>
        <mxCell id="Cp6cYt6WszPJDfv9rMYJ-83" value="+ method(type): type" style="text;strokeColor=none;fillColor=none;align=left;verticalAlign=top;spacingLeft=4;spacingRight=4;overflow=hidden;rotatable=0;points=[[0,0.5],[1,0.5]];portConstraint=eastwest;" parent="Cp6cYt6WszPJDfv9rMYJ-80" vertex="1">
          <mxGeometry y="60" width="160" height="26" as="geometry" />
        </mxCell>
        <mxCell id="Cp6cYt6WszPJDfv9rMYJ-84" value="" style="endArrow=diamondThin;endFill=1;endSize=24;html=1;entryX=0.5;entryY=0;entryDx=0;entryDy=0;" parent="1" target="Cp6cYt6WszPJDfv9rMYJ-80" edge="1">
          <mxGeometry width="160" relative="1" as="geometry">
            <mxPoint x="-160" y="176" as="sourcePoint" />
            <mxPoint x="-120" y="390" as="targetPoint" />
          </mxGeometry>
        </mxCell>
        <mxCell id="Cp6cYt6WszPJDfv9rMYJ-90" value="Policy&#xa;&lt;&lt; ENUM&gt;&gt;&#xa;" style="swimlane;fontStyle=1;align=center;verticalAlign=top;childLayout=stackLayout;horizontal=1;startSize=42;horizontalStack=0;resizeParent=1;resizeParentMax=0;resizeLast=0;collapsible=1;marginBottom=0;" parent="1" vertex="1">
          <mxGeometry x="750" y="100" width="160" height="76" as="geometry" />
        </mxCell>
        <mxCell id="Cp6cYt6WszPJDfv9rMYJ-91" value="+ field: type" style="text;strokeColor=none;fillColor=none;align=left;verticalAlign=top;spacingLeft=4;spacingRight=4;overflow=hidden;rotatable=0;points=[[0,0.5],[1,0.5]];portConstraint=eastwest;" parent="Cp6cYt6WszPJDfv9rMYJ-90" vertex="1">
          <mxGeometry y="42" width="160" height="26" as="geometry" />
        </mxCell>
        <mxCell id="Cp6cYt6WszPJDfv9rMYJ-92" value="" style="line;strokeWidth=1;fillColor=none;align=left;verticalAlign=middle;spacingTop=-1;spacingLeft=3;spacingRight=3;rotatable=0;labelPosition=right;points=[];portConstraint=eastwest;" parent="Cp6cYt6WszPJDfv9rMYJ-90" vertex="1">
          <mxGeometry y="68" width="160" height="8" as="geometry" />
        </mxCell>
        <mxCell id="Cp6cYt6WszPJDfv9rMYJ-95" value="" style="endArrow=diamondThin;endFill=1;endSize=24;html=1;entryX=1;entryY=0.5;entryDx=0;entryDy=0;exitX=-0.006;exitY=-0.269;exitDx=0;exitDy=0;exitPerimeter=0;" parent="1" source="Cp6cYt6WszPJDfv9rMYJ-91" target="Cp6cYt6WszPJDfv9rMYJ-31" edge="1">
          <mxGeometry width="160" relative="1" as="geometry">
            <mxPoint x="210" y="139" as="sourcePoint" />
            <mxPoint x="520" y="139" as="targetPoint" />
          </mxGeometry>
        </mxCell>
        <mxCell id="Cp6cYt6WszPJDfv9rMYJ-96" value="Simulation" style="swimlane;fontStyle=1;align=center;verticalAlign=top;childLayout=stackLayout;horizontal=1;startSize=26;horizontalStack=0;resizeParent=1;resizeParentMax=0;resizeLast=0;collapsible=1;marginBottom=0;" parent="1" vertex="1">
          <mxGeometry x="510" y="450" width="160" height="86" as="geometry" />
        </mxCell>
        <mxCell id="Cp6cYt6WszPJDfv9rMYJ-97" value="+ field: type" style="text;strokeColor=none;fillColor=none;align=left;verticalAlign=top;spacingLeft=4;spacingRight=4;overflow=hidden;rotatable=0;points=[[0,0.5],[1,0.5]];portConstraint=eastwest;" parent="Cp6cYt6WszPJDfv9rMYJ-96" vertex="1">
          <mxGeometry y="26" width="160" height="26" as="geometry" />
        </mxCell>
        <mxCell id="Cp6cYt6WszPJDfv9rMYJ-98" value="" style="line;strokeWidth=1;fillColor=none;align=left;verticalAlign=middle;spacingTop=-1;spacingLeft=3;spacingRight=3;rotatable=0;labelPosition=right;points=[];portConstraint=eastwest;" parent="Cp6cYt6WszPJDfv9rMYJ-96" vertex="1">
          <mxGeometry y="52" width="160" height="8" as="geometry" />
        </mxCell>
        <mxCell id="Cp6cYt6WszPJDfv9rMYJ-99" value="+ method(type): type" style="text;strokeColor=none;fillColor=none;align=left;verticalAlign=top;spacingLeft=4;spacingRight=4;overflow=hidden;rotatable=0;points=[[0,0.5],[1,0.5]];portConstraint=eastwest;" parent="Cp6cYt6WszPJDfv9rMYJ-96" vertex="1">
          <mxGeometry y="60" width="160" height="26" as="geometry" />
        </mxCell>
        <mxCell id="Cp6cYt6WszPJDfv9rMYJ-100" value="" style="endArrow=diamondThin;endFill=1;endSize=24;html=1;entryX=1;entryY=0.5;entryDx=0;entryDy=0;exitX=1;exitY=0.5;exitDx=0;exitDy=0;" parent="1" source="Cp6cYt6WszPJDfv9rMYJ-34" target="Cp6cYt6WszPJDfv9rMYJ-97" edge="1">
          <mxGeometry width="160" relative="1" as="geometry">
            <mxPoint x="860" y="450" as="sourcePoint" />
            <mxPoint x="1020" y="450" as="targetPoint" />
            <Array as="points">
              <mxPoint x="710" y="163" />
              <mxPoint x="710" y="290" />
              <mxPoint x="760" y="290" />
              <mxPoint x="760" y="489" />
            </Array>
          </mxGeometry>
        </mxCell>
        <mxCell id="Cp6cYt6WszPJDfv9rMYJ-101" value="" style="endArrow=diamondThin;endFill=1;endSize=24;html=1;entryX=0.448;entryY=1.372;entryDx=0;entryDy=0;entryPerimeter=0;exitX=0.479;exitY=1.115;exitDx=0;exitDy=0;exitPerimeter=0;" parent="1" source="Cp6cYt6WszPJDfv9rMYJ-83" target="Cp6cYt6WszPJDfv9rMYJ-99" edge="1">
          <mxGeometry width="160" relative="1" as="geometry">
            <mxPoint x="-170" y="810" as="sourcePoint" />
            <mxPoint x="540" y="770" as="targetPoint" />
            <Array as="points">
              <mxPoint x="-163" y="830" />
              <mxPoint x="582" y="820" />
            </Array>
          </mxGeometry>
        </mxCell>
      </root>
    </mxGraphModel>
  </diagram>
</mxfile>
